HIERARCHY
ROOT SpineBase
{
  OFFSET 0.000000 0.000000 0.000000
  CHANNELS 6 Xposition Yposition Zposition Zrotation Xrotation Yrotation
  JOINT SpineMid
  {
    OFFSET -0.000000 31.825949 0.000000
    CHANNELS 3 Zrotation Xrotation Yrotation
    JOINT SpineShoulder
    {
      OFFSET -0.213726 23.847834 -0.811178
      CHANNELS 3 Zrotation Xrotation Yrotation
      JOINT Neck
      {
        OFFSET -0.164222 7.934771 -0.632928
        CHANNELS 3 Zrotation Xrotation Yrotation
        JOINT Head
        {
          OFFSET -5.143613 11.974353 5.443991
          CHANNELS 3 Zrotation Xrotation Yrotation
          End Site
          {
            OFFSET 0 0 0
          }
        }
      }
      JOINT ShoulderLeft
      {
        OFFSET -6.529321 -6.289341 12.825669
        CHANNELS 3 Zrotation Xrotation Yrotation
        JOINT ElbowLeft
        {
          OFFSET -4.029406 -22.641822 1.157589
          CHANNELS 3 Zrotation Xrotation Yrotation
          JOINT WristLeft
          {
            OFFSET -13.839214 -8.528057 -17.988530
            CHANNELS 3 Zrotation Xrotation Yrotation
            JOINT HandLeft
            {
              OFFSET -4.513108 -2.928617 -5.564117
              CHANNELS 3 Zrotation Xrotation Yrotation
              JOINT HandTipLeft
              {
                OFFSET 0.279287 2.385624 0.617342
                CHANNELS 3 Zrotation Xrotation Yrotation
                End Site
                {
                  OFFSET 0 0 0
                }
              }
              JOINT ThumbLeft
              {
                OFFSET -0.815230 -0.081760 -3.305027
                CHANNELS 3 Zrotation Xrotation Yrotation
                End Site
                {
                  OFFSET 0 0 0
                }
              }
            }
          }
        }
      }
      JOINT ShoulderRight
      {
        OFFSET 3.231050 -3.435685 -14.575691
        CHANNELS 3 Zrotation Xrotation Yrotation
        JOINT ElbowRight
        {
          OFFSET -10.911558 -20.792364 -4.058829
          CHANNELS 3 Zrotation Xrotation Yrotation
          JOINT WristRight
          {
            OFFSET -1.008445 -20.290897 9.544596
            CHANNELS 3 Zrotation Xrotation Yrotation
            JOINT HandRight
            {
              OFFSET 1.513833 -6.280465 1.045463
              CHANNELS 3 Zrotation Xrotation Yrotation
              JOINT HandTipRight
              {
                OFFSET -2.111618 -8.358394 3.853526
                CHANNELS 3 Zrotation Xrotation Yrotation
                End Site
                {
                  OFFSET 0 0 0
                }
              }
              JOINT ThumbRight
              {
                OFFSET -3.835932 5.985955 5.780202
                CHANNELS 3 Zrotation Xrotation Yrotation
                End Site
                {
                  OFFSET 0 0 0
                }
              }
            }
          }
        }
      }
    }
  }
  JOINT HipLeft
  {
    OFFSET -3.721583 -0.411237 4.840406
    CHANNELS 3 Zrotation Xrotation Yrotation
    JOINT KneeLeft
    {
      OFFSET -1.462735 -31.265395 1.598465
      CHANNELS 3 Zrotation Xrotation Yrotation
      JOINT AnkleLeft
      {
        OFFSET 16.487055 -40.928422 1.128522
        CHANNELS 3 Zrotation Xrotation Yrotation
        JOINT FootLeft
        {
          OFFSET 0.499446 -7.617726 -8.785328
          CHANNELS 3 Zrotation Xrotation Yrotation
          End Site
          {
            OFFSET 0 0 0
          }
        }
      }
    }
  }
  JOINT HipRight
  {
    OFFSET 1.575638 2.545405 -12.454119
    CHANNELS 3 Zrotation Xrotation Yrotation
    JOINT KneeRight
    {
      OFFSET 5.000737 -38.149455 1.317647
      CHANNELS 3 Zrotation Xrotation Yrotation
      JOINT AnkleRight
      {
        OFFSET 8.399202 -40.183907 5.121672
        CHANNELS 3 Zrotation Xrotation Yrotation
        JOINT FootRight
        {
          OFFSET -10.782232 -3.815245 -6.585091
          CHANNELS 3 Zrotation Xrotation Yrotation
          End Site
          {
            OFFSET 0 0 0
          }
        }
      }
    }
  }
}
MOTION
Frames: 9
Frame Time: 0.033333
95.851491 80.239503 348.249674 -0.170522 0.217970 73.400010 -0.160169 -0.225686 -73.400001 -0.000000 0.000000 0.000000 -0.128315 -1.393917 -0.545288 0.000000 0.000000 0.000000 -1.328494 0.077298 -0.080620 -0.294569 7.637945 -7.657804 -0.046388 0.400279 -0.349087 2.752795 -7.806155 8.390821 0.000000 0.000000 0.000000 0.000000 0.000000 0.000000 -0.766067 -1.952323 1.160892 0.405178 2.979395 -1.421218 1.641537 -1.660831 0.332084 -2.520682 -10.021762 1.862325 0.000000 0.000000 0.000000 0.000000 0.000000 0.000000 2.536654 -1.382241 -73.371508 -3.172996 -4.101940 -0.883431 0.473517 8.072077 1.978539 0.000000 0.000000 0.000000 -0.160169 -0.225686 -73.400001 -0.000000 0.000000 0.000000 -0.703187 0.180910 0.689703 0.000000 0.000000 0.000000
95.804216 80.143301 348.276092 -0.244795 0.206742 73.221309 -0.127273 -0.294054 -73.221194 -0.000000 0.000000 0.000000 -0.243036 -1.558906 -0.566502 0.000000 0.000000 0.000000 -1.198736 0.042008 -0.068200 0.347569 6.529762 -7.728389 0.021022 0.362789 -0.332761 1.755656 -6.747029 8.288559 0.000000 0.000000 0.000000 0.000000 0.000000 0.000000 -0.495650 -1.112360 0.675453 0.508823 1.106397 -0.685177 -1.301617 1.199356 0.086433 0.027332 -9.674692 1.331673 0.000000 0.000000 0.000000 0.000000 0.000000 0.000000 2.710744 -1.650652 -73.173447 -3.490130 -4.238200 -0.934162 2.353294 10.069967 -0.012699 0.000000 0.000000 0.000000 -0.127273 -0.294054 -73.221194 -0.085176 -1.684237 -0.363545 5.859798 -0.497010 -4.200816 0.000000 0.000000 0.000000
95.754544 80.101243 348.304978 -0.318943 0.187790 73.110488 -0.087028 -0.359744 -73.110239 -0.000000 0.000000 0.000000 -0.373370 -1.651992 -0.549669 0.000000 0.000000 0.000000 -1.376576 -0.307660 -0.019282 2.896450 2.753319 -7.029506 0.211856 0.223028 -0.250101 -1.410360 -2.841241 7.217964 0.000000 0.000000 0.000000 0.000000 0.000000 0.000000 -0.483809 -0.703783 0.460342 0.489484 0.699848 -0.466303 -1.956849 0.790247 -0.122439 1.307693 -8.804966 1.759647 0.000000 0.000000 0.000000 0.000000 0.000000 0.000000 2.395552 -1.764312 -73.050569 -3.232216 -3.802713 -0.883403 6.900066 8.483878 -5.620721 0.000000 0.000000 0.000000 -0.087028 -0.359744 -73.110239 -0.120624 -1.884197 -0.410455 9.492875 -1.923797 -6.959137 0.000000 0.000000 0.000000
95.703908 80.110224 348.327417 -0.390337 0.174559 73.080294 -0.053401 -0.424242 -73.079897 -0.000000 0.000000 0.000000 -0.469547 -1.717903 -0.536144 0.000000 0.000000 0.000000 -1.609527 -0.457915 -0.007215 3.948012 1.270925 -6.402938 0.269924 0.164122 -0.207456 -2.499190 -1.240627 6.541326 0.000000 0.000000 0.000000 0.000000 0.000000 0.000000 -0.000000 0.000000 0.000000 0.621252 -1.278291 0.360898 -3.967998 5.149743 0.214144 2.418490 -9.500619 0.620713 0.000000 0.000000 0.000000 0.000000 0.000000 0.000000 1.754261 -1.790956 -73.013408 -3.032161 -2.520370 -0.608327 6.556241 8.177929 -5.314094 0.000000 0.000000 0.000000 -0.053401 -0.424242 -73.079897 -0.145021 -1.998235 -0.437865 11.759593 -2.958567 -8.543267 0.000000 0.000000 0.000000
95.662523 80.179837 348.366690 -0.454753 0.133111 73.072497 0.005065 -0.473807 -73.071948 -0.000000 0.000000 0.000000 -0.473207 -1.725741 -0.537974 0.000000 0.000000 0.000000 -1.863921 -0.753967 0.026526 3.955427 1.548663 -5.878525 0.243400 0.147454 -0.185319 -2.238431 -1.159452 5.947406 0.000000 0.000000 0.000000 0.000000 0.000000 0.000000 -0.000000 0.000000 0.000000 0.577677 -2.413283 0.399994 -5.246343 7.783906 0.560940 3.957386 -7.735882 -0.098690 0.000000 0.000000 0.000000 0.000000 0.000000 0.000000 1.389226 -1.759049 -73.005874 -2.889307 -1.790913 -0.458908 3.489297 5.675349 -1.947517 0.000000 0.000000 0.000000 0.005065 -0.473807 -73.071948 0.008622 -1.580347 -0.328542 12.069941 -3.657080 -8.792136 0.000000 0.000000 0.000000
95.645651 80.242680 348.422894 -0.488525 0.065826 73.080156 0.079204 -0.486536 -73.079539 -0.000000 0.000000 0.000000 -0.482255 -1.709589 -0.526878 0.000000 0.000000 0.000000 -2.037445 -1.145937 0.079095 3.285455 2.766869 -5.354425 0.169514 0.151517 -0.171752 -1.253263 -1.888265 5.344110 0.000000 0.000000 0.000000 0.000000 0.000000 0.000000 -0.000000 0.000000 0.000000 -0.311726 -3.536698 0.019288 -2.750682 7.704979 0.768006 3.672563 1.476451 -1.556626 0.000000 0.000000 0.000000 0.000000 0.000000 0.000000 0.860201 -1.562824 -73.021563 -2.461541 -0.851922 -0.265638 -0.280405 7.099955 2.278789 0.000000 0.000000 0.000000 0.079204 -0.486536 -73.079539 0.062867 -1.358191 -0.274696 10.540551 -3.154850 -7.583093 0.000000 0.000000 0.000000
95.636387 80.285231 348.455207 -0.508818 0.026536 73.057411 0.122895 -0.494466 -73.056763 -0.000000 0.000000 0.000000 -0.442322 -1.719900 -0.549038 0.000000 0.000000 0.000000 -2.131463 -1.625005 0.149390 1.747342 5.282485 -4.935495 0.032582 0.194208 -0.177663 0.683437 -3.808998 4.951686 0.000000 0.000000 0.000000 0.000000 0.000000 0.000000 -0.000000 0.000000 0.000000 -1.137373 -4.763317 -0.338667 -0.700271 9.618754 1.359514 4.222987 6.507066 -2.751780 0.000000 0.000000 0.000000 0.000000 0.000000 0.000000 0.122895 -0.494466 -73.056763 -0.969146 0.307589 0.100132 1.488240 5.889186 -0.288816 0.000000 0.000000 0.000000 0.122895 -0.494466 -73.056763 0.065372 -1.353817 -0.273437 7.275410 -1.627893 -5.065295 0.000000 0.000000 0.000000
95.649886 80.334357 348.463655 -0.495228 0.014045 73.030838 0.131105 -0.477765 -73.030230 -0.000000 0.000000 0.000000 -0.327553 -1.716246 -0.598062 0.000000 0.000000 0.000000 -2.191365 -2.076191 0.216824 -0.483187 8.850201 -4.612467 -0.158971 0.281102 -0.206965 3.424239 -6.803298 4.981810 0.000000 0.000000 0.000000 0.000000 0.000000 0.000000 -0.000000 0.000000 0.000000 -2.051972 -6.215238 -0.747773 2.070752 12.646812 2.098441 7.134577 17.434215 -5.780147 0.000000 0.000000 0.000000 0.000000 0.000000 0.000000 -1.104996 -0.816335 -72.986170 -0.744161 2.083541 0.266868 -0.059991 5.693193 1.082032 0.000000 0.000000 0.000000 0.131105 -0.477765 -73.030230 0.155974 -0.967689 -0.180827 2.647234 -0.158078 -1.624993 0.000000 0.000000 0.000000
95.669167 80.405861 348.467984 -0.466097 0.002403 72.974469 0.134177 -0.446374 -72.973937 -0.000000 0.000000 0.000000 -0.277606 -1.741457 -0.631125 0.000000 0.000000 0.000000 -2.248945 -2.209848 0.233896 -2.764097 12.128005 -4.146238 -0.356521 0.382859 -0.245096 6.206408 -9.842553 5.225605 0.000000 0.000000 0.000000 0.000000 0.000000 0.000000 -0.056762 -1.515725 0.807671 -3.047339 -5.411343 -1.960761 5.543592 15.041115 2.750109 7.113534 20.019649 -7.464635 0.000000 0.000000 0.000000 0.000000 0.000000 0.000000 0.670867 -1.109746 -72.941089 -1.927458 -0.504752 -0.142952 -4.863844 4.343066 7.246734 0.000000 0.000000 0.000000 0.134177 -0.446374 -72.973937 0.084639 -1.082020 -0.214291 3.049589 -0.127773 -1.978611 0.000000 0.000000 0.000000
